<?xml version="1.0" encoding="UTF-8" standalone="no"?>
<!-- Created with Inkscape (http://www.inkscape.org/) -->

<svg
   width="43.744061mm"
   height="51.699219mm"
   viewBox="0 0 43.74406 51.699218"
   version="1.1"
   id="svg86920"
   inkscape:version="1.1.1 (3bf5ae0d25, 2021-09-20)"
   sodipodi:docname="favicon.svg"
   xmlns:inkscape="http://www.inkscape.org/namespaces/inkscape"
   xmlns:sodipodi="http://sodipodi.sourceforge.net/DTD/sodipodi-0.dtd"
   xmlns="http://www.w3.org/2000/svg"
   xmlns:svg="http://www.w3.org/2000/svg">
  <sodipodi:namedview
     id="namedview86922"
     pagecolor="#ffffff"
     bordercolor="#999999"
     borderopacity="1"
     inkscape:pageshadow="0"
     inkscape:pageopacity="0"
     inkscape:pagecheckerboard="0"
     inkscape:document-units="mm"
     showgrid="false"
     fit-margin-top="0"
     fit-margin-left="0"
     fit-margin-right="0"
     fit-margin-bottom="0"
     inkscape:zoom="2.8542929"
     inkscape:cx="46.771654"
     inkscape:cy="112.11183"
     inkscape:window-width="1920"
     inkscape:window-height="995"
     inkscape:window-x="0"
     inkscape:window-y="32"
     inkscape:window-maximized="1"
     inkscape:current-layer="layer1" />
  <defs
     id="defs86917" />
  <g
     inkscape:label="Layer 1"
     inkscape:groupmode="layer"
     id="layer1"
     transform="translate(-167.50066,-179.20166)">
    <path
       d="m 181.17496,208.26446 -3.62226,3.62228 -3.62228,-3.62228 q 0.90561,0 0.90561,-0.90555 V 194.681 q 0,-0.90559 -0.90561,-0.90559 h -3.62226 q -0.90556,0 -0.90556,0.90559 v 12.67791 q 0,0.90555 -0.90554,0.90555 -0.90556,0 -0.90556,-0.90555 v -25.35586 q 0,-1.1229 0.79689,-1.91979 0.79687,-0.79692 1.91977,-0.79692 h 7.24454 q 1.12292,0 1.91981,0.79692 0.7969,0.79689 0.7969,1.91979 v 25.35586 q 0,0.90555 0.90555,0.90555 z m -2.71668,-26.26141 q 0,-0.90556 -0.90558,-0.90556 -0.90557,0 -0.90557,0.90556 0,0.90554 0.90557,0.90554 0.90558,0 0.90558,-0.90554 z m 0,3.62225 q 0,-0.90556 -0.90558,-0.90556 -0.90557,0 -0.90557,0.90556 0,0.90558 0.90557,0.90558 0.90558,0 0.90558,-0.90558 z m 0,3.62228 q 0,-0.90556 -0.90558,-0.90556 -0.90557,0 -0.90557,0.90556 0,0.90556 0.90557,0.90556 0.90558,0 0.90558,-0.90556 z m -3.62225,0 v -5.43338 q 0,-0.90561 -0.90561,-0.90561 h -3.62226 q -0.90556,0 -0.90556,0.90561 v 5.43338 q 0,0.90556 0.90556,0.90556 h 3.62226 q 0.90561,0 0.90561,-0.90556 z m 3.62225,3.62227 q 0,-0.90556 -0.90558,-0.90556 -0.90557,0 -0.90557,0.90556 0,0.90556 0.90557,0.90556 0.90558,0 0.90558,-0.90556 z m 0,3.62226 q 0,-0.90556 -0.90558,-0.90556 -0.90557,0 -0.90557,0.90556 0,0.90555 0.90557,0.90555 0.90558,0 0.90558,-0.90555 z m 0,3.62225 q 0,-0.90555 -0.90558,-0.90555 -0.90557,0 -0.90557,0.90555 0,0.90559 0.90557,0.90559 0.90558,0 0.90558,-0.90559 z m 0,3.62229 q 0,-0.90556 -0.90558,-0.90556 -0.90557,0 -0.90557,0.90556 0,0.90556 0.90557,0.90556 0.90558,0 0.90558,-0.90556 z m 0,3.62226 q 0,-0.90555 -0.90558,-0.90555 -0.90557,0 -0.90557,0.90555 0,0.90555 0.90557,0.90555 0.90558,0 0.90558,-0.90555 z"
       style="font-size:10.5833px;-inkscape-font-specification:'Angie Pierced';fill:#ffffff;stroke-width:0.905568"
       id="path87078" />
    <path
       d="m 190.23062,208.26446 -3.62229,3.62228 -3.62226,-3.62228 q 0.90557,0 0.90557,-0.90555 v -25.35586 q 0,-1.1229 0.79692,-1.91979 0.7969,-0.79692 1.91977,-0.79692 1.1229,0 1.91983,0.79692 0.79688,0.79689 0.79688,1.91979 v 25.35586 q 0,0.90555 0.90558,0.90555 z m -2.71673,-26.26141 q 0,-0.90556 -0.90556,-0.90556 -0.90554,0 -0.90554,0.90556 0,0.90554 0.90554,0.90554 0.90556,0 0.90556,-0.90554 z m 0,3.62225 q 0,-0.90556 -0.90556,-0.90556 -0.90554,0 -0.90554,0.90556 0,0.90558 0.90554,0.90558 0.90556,0 0.90556,-0.90558 z m 0,3.62228 q 0,-0.90556 -0.90556,-0.90556 -0.90554,0 -0.90554,0.90556 0,0.90556 0.90554,0.90556 0.90556,0 0.90556,-0.90556 z m 0,3.62227 q 0,-0.90556 -0.90556,-0.90556 -0.90554,0 -0.90554,0.90556 0,0.90556 0.90554,0.90556 0.90556,0 0.90556,-0.90556 z m 0,3.62226 q 0,-0.90556 -0.90556,-0.90556 -0.90554,0 -0.90554,0.90556 0,0.90555 0.90554,0.90555 0.90556,0 0.90556,-0.90555 z m 0,3.62225 q 0,-0.90555 -0.90556,-0.90555 -0.90554,0 -0.90554,0.90555 0,0.90559 0.90554,0.90559 0.90556,0 0.90556,-0.90559 z m 0,3.62229 q 0,-0.90556 -0.90556,-0.90556 -0.90554,0 -0.90554,0.90556 0,0.90556 0.90554,0.90556 0.90556,0 0.90556,-0.90556 z m 0,3.62226 q 0,-0.90555 -0.90556,-0.90555 -0.90554,0 -0.90554,0.90555 0,0.90555 0.90554,0.90555 0.90556,0 0.90556,-0.90555 z"
       style="font-size:10.5833px;-inkscape-font-specification:'Angie Pierced';fill:#ffffff;stroke-width:0.905568"
       id="path87080" />
    <path
       d="m 201.56121,180.0808 q 0,0.36924 -0.26374,0.63298 -0.24617,0.24614 -0.6154,0.24614 h -3.07696 q -0.43957,0 -0.43957,0.43958 v 11.4287 q 0,0.43956 0.43957,0.43956 h 1.75826 l -3.51653,3.51653 -1.75826,-1.75827 q 0.43958,0 0.43958,-0.43956 V 181.3995 q 0,-0.43958 -0.43958,-0.43958 h -1.31868 q -0.36924,0 -0.63298,-0.24614 -0.24616,-0.26374 -0.24616,-0.63298 0,-0.36924 0.24616,-0.6154 0.26374,-0.26374 0.63298,-0.26374 h 7.91217 q 0.36923,0 0.6154,0.26374 0.26374,0.24616 0.26374,0.6154 z m -5.27479,0.43956 q 0,-0.43956 -0.43958,-0.43956 -0.43956,0 -0.43956,0.43956 0,0.43956 0.43956,0.43956 0.43958,0 0.43958,-0.43956 z m 0,1.75826 q 0,-0.43956 -0.43958,-0.43956 -0.43956,0 -0.43956,0.43956 0,0.43957 0.43956,0.43957 0.43958,0 0.43958,-0.43957 z m 0,1.75827 q 0,-0.43957 -0.43958,-0.43957 -0.43956,0 -0.43956,0.43957 0,0.43956 0.43956,0.43956 0.43958,0 0.43958,-0.43956 z m 0,1.75826 q 0,-0.43956 -0.43958,-0.43956 -0.43956,0 -0.43956,0.43956 0,0.43956 0.43956,0.43956 0.43958,0 0.43958,-0.43956 z m 0,1.75826 q 0,-0.43956 -0.43958,-0.43956 -0.43956,0 -0.43956,0.43956 0,0.43956 0.43956,0.43956 0.43958,0 0.43958,-0.43956 z m 0,1.75826 q 0,-0.43956 -0.43958,-0.43956 -0.43956,0 -0.43956,0.43956 0,0.43957 0.43956,0.43957 0.43958,0 0.43958,-0.43957 z m 0,1.75827 q 0,-0.43956 -0.43958,-0.43956 -0.43956,0 -0.43956,0.43956 0,0.43956 0.43956,0.43956 0.43958,0 0.43958,-0.43956 z m 0,1.75826 q 0,-0.43956 -0.43958,-0.43956 -0.43956,0 -0.43956,0.43956 0,0.43956 0.43956,0.43956 0.43958,0 0.43958,-0.43956 z m 0,1.75826 q 0,-0.43956 -0.43958,-0.43956 -0.43956,0 -0.43956,0.43956 0,0.43956 0.43956,0.43956 0.43958,0 0.43958,-0.43956 z"
       style="font-size:10.5833px;-inkscape-font-specification:'Angie Pierced';fill:#ffffff;stroke-width:0.439566"
       id="path87082" />
    <path
       d="m 206.83596,187.99297 -1.75826,1.75827 -1.75826,-1.75827 q 0.43956,0 0.43956,-0.43956 0,-0.43956 -0.43956,-0.43956 h -1.75826 q -0.43957,0 -0.43957,0.43956 v 3.51653 q 0,0.43956 0.43957,0.43956 h 1.75826 q 0.33406,0 0.43956,-0.43956 0.1055,-0.43956 0.43956,-0.43956 h 1.75826 q 0.43958,0 0.43958,0.43956 v 0.87914 q 0,0.54505 -0.38683,0.93187 -0.38681,0.38681 -0.93187,0.38681 h -3.51652 q -0.54506,0 -0.93189,-0.38681 -0.38682,-0.38682 -0.38682,-0.93187 v -7.91219 q 0,-0.54506 0.38682,-0.93187 0.38683,-0.38683 0.93189,-0.38683 h 3.51652 q 0.54506,0 0.93187,0.38683 0.38683,0.38681 0.38683,0.93187 v 3.51652 q 0,0.43956 0.43956,0.43956 z m -1.3187,-3.95608 q 0,-0.43957 -0.43956,-0.43957 -0.43956,0 -0.43956,0.43957 0,0.43956 0.43956,0.43956 0.43956,0 0.43956,-0.43956 z m 0,1.75826 q 0,-0.43956 -0.43956,-0.43956 -0.43956,0 -0.43956,0.43956 0,0.43956 0.43956,0.43956 0.43956,0 0.43956,-0.43956 z m -1.75826,-0.87912 q 0,-0.43958 -0.43956,-0.43958 h -1.75826 q -0.43957,0 -0.43957,0.43958 0,0.43956 0.43957,0.43956 h 1.75826 q 0.43956,0 0.43956,-0.43956 z m 1.75826,2.63738 q 0,-0.43956 -0.43956,-0.43956 -0.43956,0 -0.43956,0.43956 0,0.43956 0.43956,0.43956 0.43956,0 0.43956,-0.43956 z"
       style="font-size:10.5833px;-inkscape-font-specification:'Angie Pierced';fill:#ffffff;stroke-width:0.439566"
       id="path87084" />
    <path
       d="m 199.51446,209.50128 -3.51652,3.51652 -1.75827,-1.75826 q 0.43956,0 0.43956,-0.43956 v -12.30784 q 0,-0.54506 0.38682,-0.93187 0.38683,-0.38683 0.93189,-0.38683 0.54505,0 0.93187,0.38683 0.38683,0.38681 0.38683,0.93187 v 10.54958 q 0,0.43956 0.43956,0.43956 z m -3.07696,-10.98914 q 0,-0.43956 -0.43956,-0.43956 -0.43957,0 -0.43957,0.43956 0,0.43956 0.43957,0.43956 0.43956,0 0.43956,-0.43956 z m 0,1.75826 q 0,-0.43956 -0.43956,-0.43956 -0.43957,0 -0.43957,0.43956 0,0.43957 0.43957,0.43957 0.43956,0 0.43956,-0.43957 z m 0,1.75827 q 0,-0.43957 -0.43956,-0.43957 -0.43957,0 -0.43957,0.43957 0,0.43956 0.43957,0.43956 0.43956,0 0.43956,-0.43956 z m 0,1.75826 q 0,-0.43956 -0.43956,-0.43956 -0.43957,0 -0.43957,0.43956 0,0.43956 0.43957,0.43956 0.43956,0 0.43956,-0.43956 z m 0,1.75826 q 0,-0.43956 -0.43956,-0.43956 -0.43957,0 -0.43957,0.43956 0,0.43956 0.43957,0.43956 0.43956,0 0.43956,-0.43956 z m 0,1.75826 q 0,-0.43956 -0.43956,-0.43956 -0.43957,0 -0.43957,0.43956 0,0.43957 0.43957,0.43957 0.43956,0 0.43956,-0.43957 z m 0,1.75827 q 0,-0.43956 -0.43956,-0.43956 -0.43957,0 -0.43957,0.43956 0,0.43956 0.43957,0.43956 0.43956,0 0.43956,-0.43956 z m 0,1.75826 q 0,-0.43956 -0.43956,-0.43956 -0.43957,0 -0.43957,0.43956 0,0.43956 0.43957,0.43956 0.43956,0 0.43956,-0.43956 z"
       style="font-size:10.5833px;-inkscape-font-specification:'Angie Pierced';fill:#ffffff;stroke-width:0.439566"
       id="path87086" />
    <path
       d="m 206.98706,205.98475 -1.75827,1.75827 -1.75826,-1.75827 q 0.43956,0 0.43956,-0.43956 0,-0.43956 -0.43956,-0.43956 h -1.75826 q -0.43958,0 -0.43958,0.43956 v 3.51653 q 0,0.43956 0.43958,0.43956 h 1.75826 q 0.33407,0 0.43956,-0.43956 0.1055,-0.43956 0.43956,-0.43956 h 1.75827 q 0.43956,0 0.43956,0.43956 v 0.87914 q 0,0.54505 -0.38682,0.93187 -0.38681,0.38681 -0.93187,0.38681 h -3.51652 q -0.54508,0 -0.93189,-0.38681 -0.38681,-0.38682 -0.38681,-0.93187 v -7.91219 q 0,-0.54506 0.38681,-0.93187 0.38681,-0.38683 0.93189,-0.38683 h 3.51652 q 0.54506,0 0.93187,0.38683 0.38682,0.38681 0.38682,0.93187 v 3.51652 q 0,0.43956 0.43958,0.43956 z m -1.31871,-3.95608 q 0,-0.43957 -0.43956,-0.43957 -0.43958,0 -0.43958,0.43957 0,0.43956 0.43958,0.43956 0.43956,0 0.43956,-0.43956 z m 0,1.75826 q 0,-0.43956 -0.43956,-0.43956 -0.43958,0 -0.43958,0.43956 0,0.43956 0.43958,0.43956 0.43956,0 0.43956,-0.43956 z m -1.75826,-0.87912 q 0,-0.43958 -0.43956,-0.43958 h -1.75826 q -0.43958,0 -0.43958,0.43958 0,0.43956 0.43958,0.43956 h 1.75826 q 0.43956,0 0.43956,-0.43956 z m 1.75826,2.63738 q 0,-0.43956 -0.43956,-0.43956 -0.43958,0 -0.43958,0.43956 0,0.43956 0.43958,0.43956 0.43956,0 0.43956,-0.43956 z"
       style="font-size:10.5833px;-inkscape-font-specification:'Angie Pierced';font-variation-settings:normal;opacity:1;vector-effect:none;fill:#ffffff;fill-opacity:1;stroke-width:0.439566;stroke-linecap:butt;stroke-linejoin:miter;stroke-miterlimit:4;stroke-dasharray:none;stroke-dashoffset:0;stroke-opacity:1;-inkscape-stroke:none;stop-color:#000000;stop-opacity:1"
       id="path87088" />
    <path
       d="m 177.61065,225.62609 -1.75826,1.75826 -1.75826,-1.75826 q 0.43958,0 0.43958,-0.43956 v -7.91218 q 0,-0.43958 -0.43958,-0.43958 h -1.75826 q -0.43957,0 -0.43957,0.43958 v 7.91218 q 0,0.43956 -0.43956,0.43956 -0.43956,0 -0.43956,-0.43956 v -7.91218 q 0,-0.43958 -0.43958,-0.43958 h -1.75826 q -0.43956,0 -0.43956,0.43958 v 7.91218 q 0,0.43956 -0.43956,0.43956 -0.43956,0 -0.43956,-0.43956 v -8.79132 q 0,-0.54505 0.38681,-0.93187 0.38681,-0.38683 0.93187,-0.38683 h 1.3187 q 0.54506,0 0.93189,0.38683 0.38681,0.38682 0.38681,0.93187 0,-0.54505 0.38682,-0.93187 0.38681,-0.38683 0.93188,-0.38683 h 3.07695 q 0.54508,0 0.93189,0.38683 0.38681,0.38682 0.38681,0.93187 v 8.79132 q 0,0.43956 0.43956,0.43956 z m -1.31868,-9.23088 q 0,-0.43956 -0.43958,-0.43956 -0.43956,0 -0.43956,0.43956 0,0.43956 0.43956,0.43956 0.43958,0 0.43958,-0.43956 z m 0,1.75827 q 0,-0.43957 -0.43958,-0.43957 -0.43956,0 -0.43956,0.43957 0,0.43956 0.43956,0.43956 0.43958,0 0.43958,-0.43956 z m 0,1.75826 q 0,-0.43956 -0.43958,-0.43956 -0.43956,0 -0.43956,0.43956 0,0.43956 0.43956,0.43956 0.43958,0 0.43958,-0.43956 z m 0,1.75826 q 0,-0.43956 -0.43958,-0.43956 -0.43956,0 -0.43956,0.43956 0,0.43956 0.43956,0.43956 0.43958,0 0.43958,-0.43956 z m 0,1.75826 q 0,-0.43956 -0.43958,-0.43956 -0.43956,0 -0.43956,0.43956 0,0.43956 0.43956,0.43956 0.43958,0 0.43958,-0.43956 z m 0,1.75827 q 0,-0.43957 -0.43958,-0.43957 -0.43956,0 -0.43956,0.43957 0,0.43956 0.43956,0.43956 0.43958,0 0.43958,-0.43956 z"
       style="font-size:10.5833px;-inkscape-font-specification:'Angie Pierced';fill:#ffffff;stroke-width:0.439566"
       id="path87090-6" />
    <path
       d="m 185.08325,220.3513 -1.75826,1.75826 -1.75827,-1.75826 q 0.43957,0 0.43957,-0.43956 0,-0.43956 -0.43957,-0.43956 h -1.75826 q -0.43958,0 -0.43958,0.43956 v 3.51652 q 0,0.43956 0.43958,0.43956 h 1.75826 q 0.33407,0 0.43957,-0.43956 0.10549,-0.43956 0.43956,-0.43956 h 1.75826 q 0.43956,0 0.43956,0.43956 v 0.87914 q 0,0.54506 -0.38681,0.93187 -0.38682,0.38682 -0.93187,0.38682 h -3.51653 q -0.54507,0 -0.93189,-0.38682 -0.38681,-0.38681 -0.38681,-0.93187 v -7.91219 q 0,-0.54505 0.38681,-0.93187 0.38682,-0.38683 0.93189,-0.38683 h 3.51653 q 0.54505,0 0.93187,0.38683 0.38681,0.38682 0.38681,0.93187 v 3.51653 q 0,0.43956 0.43958,0.43956 z m -1.3187,-3.95609 q 0,-0.43956 -0.43956,-0.43956 -0.43958,0 -0.43958,0.43956 0,0.43956 0.43958,0.43956 0.43956,0 0.43956,-0.43956 z m 0,1.75827 q 0,-0.43957 -0.43956,-0.43957 -0.43958,0 -0.43958,0.43957 0,0.43956 0.43958,0.43956 0.43956,0 0.43956,-0.43956 z m -1.75826,-0.87913 q 0,-0.43958 -0.43957,-0.43958 h -1.75826 q -0.43958,0 -0.43958,0.43958 0,0.43956 0.43958,0.43956 h 1.75826 q 0.43957,0 0.43957,-0.43956 z m 1.75826,2.63739 q 0,-0.43956 -0.43956,-0.43956 -0.43958,0 -0.43958,0.43956 0,0.43956 0.43958,0.43956 0.43956,0 0.43956,-0.43956 z"
       style="font-size:10.5833px;-inkscape-font-specification:'Angie Pierced';fill:#ffffff;stroke-width:0.439566"
       id="path87092-6" />
    <path
       d="m 193.18882,214.19739 q 0,0.36924 -0.26374,0.63298 -0.24616,0.24614 -0.6154,0.24614 h -2.19782 q -0.43956,0 -0.43956,0.43958 v 7.91217 q 0,0.43956 0.43956,0.43956 h 1.75826 l -3.51653,3.51653 -1.75826,-1.75826 q 0.43956,0 0.43956,-0.43956 v -9.67044 q 0,-0.43958 -0.43956,-0.43958 h -0.87912 q -0.36924,0 -0.6154,-0.24614 -0.26374,-0.26374 -0.26374,-0.63298 0,-0.36924 0.26374,-0.6154 0.24616,-0.26374 0.6154,-0.26374 h 0.87912 q 0.43956,0 0.43956,-0.43956 0,-0.54506 0.38683,-0.93187 0.38682,-0.38683 0.93187,-0.38683 0.54506,0 0.93189,0.38683 0.38682,0.38681 0.38682,0.93187 0,0.43956 0.43956,0.43956 h 2.19782 q 0.36924,0 0.6154,0.26374 0.26374,0.24616 0.26374,0.6154 z m -4.39566,-1.3187 q 0,-0.43956 -0.43957,-0.43956 -0.43956,0 -0.43956,0.43956 0,0.43956 0.43956,0.43956 0.43957,0 0.43957,-0.43956 z m 0,1.75826 q 0,-0.43956 -0.43957,-0.43956 -0.43956,0 -0.43956,0.43956 0,0.43956 0.43956,0.43956 0.43957,0 0.43957,-0.43956 z m 0,1.75826 q 0,-0.43956 -0.43957,-0.43956 -0.43956,0 -0.43956,0.43956 0,0.43956 0.43956,0.43956 0.43957,0 0.43957,-0.43956 z m 0,1.75827 q 0,-0.43957 -0.43957,-0.43957 -0.43956,0 -0.43956,0.43957 0,0.43956 0.43956,0.43956 0.43957,0 0.43957,-0.43956 z m 0,1.75826 q 0,-0.43956 -0.43957,-0.43956 -0.43956,0 -0.43956,0.43956 0,0.43956 0.43956,0.43956 0.43957,0 0.43957,-0.43956 z m 0,1.75826 q 0,-0.43956 -0.43957,-0.43956 -0.43956,0 -0.43956,0.43956 0,0.43956 0.43956,0.43956 0.43957,0 0.43957,-0.43956 z m 0,1.75826 q 0,-0.43956 -0.43957,-0.43956 -0.43956,0 -0.43956,0.43956 0,0.43956 0.43956,0.43956 0.43957,0 0.43957,-0.43956 z m 0,1.75827 q 0,-0.43957 -0.43957,-0.43957 -0.43956,0 -0.43956,0.43957 0,0.43956 0.43956,0.43956 0.43957,0 0.43957,-0.43956 z"
       style="font-size:10.5833px;-inkscape-font-specification:'Angie Pierced';fill:#ffffff;stroke-width:0.439566"
       id="path87094-5" />
    <path
       d="m 199.34273,220.3513 -1.75826,1.75826 -1.75826,-1.75826 q 0.43956,0 0.43956,-0.43956 v -2.63739 q 0,-0.43958 -0.43956,-0.43958 h -1.75827 q -0.43956,0 -0.43956,0.43958 v 7.91218 q 0,0.43956 -0.43956,0.43956 -0.43958,0 -0.43958,-0.43956 v -8.79132 q 0,-0.54505 0.38683,-0.93187 0.38682,-0.38683 0.93187,-0.38683 h 3.51653 q 0.54506,0 0.93189,0.38683 0.38681,0.38682 0.38681,0.93187 v 3.51653 q 0,0.43956 0.43956,0.43956 z m -1.3187,-3.95609 q 0,-0.43956 -0.43956,-0.43956 -0.43956,0 -0.43956,0.43956 0,0.43956 0.43956,0.43956 0.43956,0 0.43956,-0.43956 z m 0,1.75827 q 0,-0.43957 -0.43956,-0.43957 -0.43956,0 -0.43956,0.43957 0,0.43956 0.43956,0.43956 0.43956,0 0.43956,-0.43956 z m 0,1.75826 q 0,-0.43956 -0.43956,-0.43956 -0.43956,0 -0.43956,0.43956 0,0.43956 0.43956,0.43956 0.43956,0 0.43956,-0.43956 z"
       style="font-size:10.5833px;-inkscape-font-specification:'Angie Pierced';fill:#ffffff;stroke-width:0.439566"
       id="path87096-9" />
    <path
       d="m 206.56918,229.14261 -1.75826,1.75827 -1.75827,-1.75827 q 0.43957,0 0.43957,-0.43956 v -3.07696 h -2.19783 q -0.54506,0 -0.93187,-0.38682 -0.38683,-0.38681 -0.38683,-0.93187 v -8.79131 q 0,-0.43958 0.43958,-0.43958 0.43956,0 0.43956,0.43958 v 7.91217 q 0,0.43956 0.43956,0.43956 h 1.75826 q 0.43957,0 0.43957,-0.43956 v -7.03305 q 0,-0.54505 0.38683,-0.93187 0.38681,-0.38683 0.93187,-0.38683 0.54506,0 0.93187,0.38683 0.38683,0.38682 0.38683,0.93187 v 12.30784 q 0,0.43956 0.43956,0.43956 z m -1.3187,-12.7474 q 0,-0.43956 -0.43956,-0.43956 -0.43956,0 -0.43956,0.43956 0,0.43956 0.43956,0.43956 0.43956,0 0.43956,-0.43956 z m 0,1.75827 q 0,-0.43957 -0.43956,-0.43957 -0.43956,0 -0.43956,0.43957 0,0.43956 0.43956,0.43956 0.43956,0 0.43956,-0.43956 z m 0,1.75826 q 0,-0.43956 -0.43956,-0.43956 -0.43956,0 -0.43956,0.43956 0,0.43956 0.43956,0.43956 0.43956,0 0.43956,-0.43956 z m 0,1.75826 q 0,-0.43956 -0.43956,-0.43956 -0.43956,0 -0.43956,0.43956 0,0.43956 0.43956,0.43956 0.43956,0 0.43956,-0.43956 z m 0,1.75826 q 0,-0.43956 -0.43956,-0.43956 -0.43956,0 -0.43956,0.43956 0,0.43956 0.43956,0.43956 0.43956,0 0.43956,-0.43956 z m 0,1.75827 q 0,-0.43957 -0.43956,-0.43957 -0.43956,0 -0.43956,0.43957 0,0.43956 0.43956,0.43956 0.43956,0 0.43956,-0.43956 z m 0,1.75826 q 0,-0.43956 -0.43956,-0.43956 -0.43956,0 -0.43956,0.43956 0,0.43956 0.43956,0.43956 0.43956,0 0.43956,-0.43956 z m 0,1.75826 q 0,-0.43956 -0.43956,-0.43956 -0.43956,0 -0.43956,0.43956 0,0.43956 0.43956,0.43956 0.43956,0 0.43956,-0.43956 z"
       style="font-size:10.5833px;-inkscape-font-specification:'Angie Pierced';fill:#ffffff;stroke-width:0.439566"
       id="path87098-6" />
    <rect
       style="font-variation-settings:normal;opacity:1;vector-effect:none;fill:#ffffff;fill-opacity:1;stroke:none;stroke-width:0.609385;stroke-linecap:butt;stroke-linejoin:miter;stroke-miterlimit:4;stroke-dasharray:none;stroke-dashoffset:0;stroke-opacity:1;-inkscape-stroke:none;stop-color:#000000;stop-opacity:1"
       id="rect3383"
       width="3.3792405"
       height="1.7582625"
       x="207.77278"
       y="203.34702" />
    <rect
       style="font-variation-settings:normal;vector-effect:none;fill:#ffffff;fill-opacity:1;stroke:none;stroke-width:0.609385;stroke-linecap:butt;stroke-linejoin:miter;stroke-miterlimit:4;stroke-dasharray:none;stroke-dashoffset:0;stroke-opacity:1;-inkscape-stroke:none;stop-color:#000000"
       id="rect3383-7"
       width="3.3792405"
       height="1.7582625"
       x="207.77278"
       y="185.35559" />
  </g>
</svg>
