<?xml version="1.0" encoding="UTF-8" standalone="no"?>
<!-- Created with Inkscape (http://www.inkscape.org/) -->

<svg
   width="52.323711mm"
   height="11.64163mm"
   viewBox="0 0 52.323711 11.64163"
   version="1.1"
   id="svg86920"
   xmlns="http://www.w3.org/2000/svg"
   xmlns:svg="http://www.w3.org/2000/svg">
  <defs
     id="defs86917" />
  <g
     id="layer1"
     transform="translate(-154.78189,-179.20166)">
    <g
       aria-label="AI Telemetry"
       id="text1612-4-1-8-6-6-0-2-6-5-0-3-1-5-1-5-5-0"
       style="font-size:10.5833px;stroke-width:0.264583;fill:#000000">
      <path
         d="m 158.75062,187.6683 -1.05833,1.05833 -1.05833,-1.05833 q 0.26459,0 0.26459,-0.26458 v -3.70415 q 0,-0.26459 -0.26459,-0.26459 h -1.05833 q -0.26458,0 -0.26458,0.26459 v 3.70415 q 0,0.26458 -0.26458,0.26458 -0.26458,0 -0.26458,-0.26458 v -7.40831 q 0,-0.32808 0.23283,-0.56091 0.23283,-0.23284 0.56091,-0.23284 h 2.11666 q 0.32809,0 0.56092,0.23284 0.23283,0.23283 0.23283,0.56091 v 7.40831 q 0,0.26458 0.26458,0.26458 z m -0.79374,-7.67289 q 0,-0.26458 -0.26459,-0.26458 -0.26458,0 -0.26458,0.26458 0,0.26458 0.26458,0.26458 0.26459,0 0.26459,-0.26458 z m 0,1.05833 q 0,-0.26458 -0.26459,-0.26458 -0.26458,0 -0.26458,0.26458 0,0.26458 0.26458,0.26458 0.26459,0 0.26459,-0.26458 z m 0,1.05833 q 0,-0.26458 -0.26459,-0.26458 -0.26458,0 -0.26458,0.26458 0,0.26458 0.26458,0.26458 0.26459,0 0.26459,-0.26458 z m -1.05833,0 v -1.58749 q 0,-0.26459 -0.26459,-0.26459 h -1.05833 q -0.26458,0 -0.26458,0.26459 v 1.58749 q 0,0.26458 0.26458,0.26458 h 1.05833 q 0.26459,0 0.26459,-0.26458 z m 1.05833,1.05833 q 0,-0.26458 -0.26459,-0.26458 -0.26458,0 -0.26458,0.26458 0,0.26458 0.26458,0.26458 0.26459,0 0.26459,-0.26458 z m 0,1.05833 q 0,-0.26458 -0.26459,-0.26458 -0.26458,0 -0.26458,0.26458 0,0.26458 0.26458,0.26458 0.26459,0 0.26459,-0.26458 z m 0,1.05833 q 0,-0.26458 -0.26459,-0.26458 -0.26458,0 -0.26458,0.26458 0,0.26458 0.26458,0.26458 0.26459,0 0.26459,-0.26458 z m 0,1.05833 q 0,-0.26458 -0.26459,-0.26458 -0.26458,0 -0.26458,0.26458 0,0.26458 0.26458,0.26458 0.26459,0 0.26459,-0.26458 z m 0,1.05833 q 0,-0.26458 -0.26459,-0.26458 -0.26458,0 -0.26458,0.26458 0,0.26458 0.26458,0.26458 0.26459,0 0.26459,-0.26458 z"
         style="-inkscape-font-specification:'Angie Pierced';fill:#000000"
         id="path87078" />
      <path
         d="m 161.39644,187.6683 -1.05833,1.05833 -1.05833,-1.05833 q 0.26458,0 0.26458,-0.26458 v -7.40831 q 0,-0.32808 0.23284,-0.56091 0.23283,-0.23284 0.56091,-0.23284 0.32808,0 0.56092,0.23284 0.23283,0.23283 0.23283,0.56091 v 7.40831 q 0,0.26458 0.26458,0.26458 z m -0.79375,-7.67289 q 0,-0.26458 -0.26458,-0.26458 -0.26458,0 -0.26458,0.26458 0,0.26458 0.26458,0.26458 0.26458,0 0.26458,-0.26458 z m 0,1.05833 q 0,-0.26458 -0.26458,-0.26458 -0.26458,0 -0.26458,0.26458 0,0.26458 0.26458,0.26458 0.26458,0 0.26458,-0.26458 z m 0,1.05833 q 0,-0.26458 -0.26458,-0.26458 -0.26458,0 -0.26458,0.26458 0,0.26458 0.26458,0.26458 0.26458,0 0.26458,-0.26458 z m 0,1.05833 q 0,-0.26458 -0.26458,-0.26458 -0.26458,0 -0.26458,0.26458 0,0.26458 0.26458,0.26458 0.26458,0 0.26458,-0.26458 z m 0,1.05833 q 0,-0.26458 -0.26458,-0.26458 -0.26458,0 -0.26458,0.26458 0,0.26458 0.26458,0.26458 0.26458,0 0.26458,-0.26458 z m 0,1.05833 q 0,-0.26458 -0.26458,-0.26458 -0.26458,0 -0.26458,0.26458 0,0.26458 0.26458,0.26458 0.26458,0 0.26458,-0.26458 z m 0,1.05833 q 0,-0.26458 -0.26458,-0.26458 -0.26458,0 -0.26458,0.26458 0,0.26458 0.26458,0.26458 0.26458,0 0.26458,-0.26458 z m 0,1.05833 q 0,-0.26458 -0.26458,-0.26458 -0.26458,0 -0.26458,0.26458 0,0.26458 0.26458,0.26458 0.26458,0 0.26458,-0.26458 z"
         style="-inkscape-font-specification:'Angie Pierced';fill:#000000"
         id="path87080" />
      <path
         d="m 171.97972,179.73083 q 0,0.22225 -0.15875,0.381 -0.14817,0.14816 -0.37042,0.14816 h -1.85208 q -0.26458,0 -0.26458,0.26459 v 6.87914 q 0,0.26458 0.26458,0.26458 h 1.05833 l -2.11666,2.11666 -1.05833,-1.05833 q 0.26459,0 0.26459,-0.26458 v -7.93747 q 0,-0.26459 -0.26459,-0.26459 h -0.79374 q -0.22225,0 -0.381,-0.14816 -0.14817,-0.15875 -0.14817,-0.381 0,-0.22225 0.14817,-0.37042 0.15875,-0.15875 0.381,-0.15875 h 4.76248 q 0.22225,0 0.37042,0.15875 0.15875,0.14817 0.15875,0.37042 z m -3.17499,0.26458 q 0,-0.26458 -0.26459,-0.26458 -0.26458,0 -0.26458,0.26458 0,0.26458 0.26458,0.26458 0.26459,0 0.26459,-0.26458 z m 0,1.05833 q 0,-0.26458 -0.26459,-0.26458 -0.26458,0 -0.26458,0.26458 0,0.26458 0.26458,0.26458 0.26459,0 0.26459,-0.26458 z m 0,1.05833 q 0,-0.26458 -0.26459,-0.26458 -0.26458,0 -0.26458,0.26458 0,0.26458 0.26458,0.26458 0.26459,0 0.26459,-0.26458 z m 0,1.05833 q 0,-0.26458 -0.26459,-0.26458 -0.26458,0 -0.26458,0.26458 0,0.26458 0.26458,0.26458 0.26459,0 0.26459,-0.26458 z m 0,1.05833 q 0,-0.26458 -0.26459,-0.26458 -0.26458,0 -0.26458,0.26458 0,0.26458 0.26458,0.26458 0.26459,0 0.26459,-0.26458 z m 0,1.05833 q 0,-0.26458 -0.26459,-0.26458 -0.26458,0 -0.26458,0.26458 0,0.26458 0.26458,0.26458 0.26459,0 0.26459,-0.26458 z m 0,1.05833 q 0,-0.26458 -0.26459,-0.26458 -0.26458,0 -0.26458,0.26458 0,0.26458 0.26458,0.26458 0.26459,0 0.26459,-0.26458 z m 0,1.05833 q 0,-0.26458 -0.26459,-0.26458 -0.26458,0 -0.26458,0.26458 0,0.26458 0.26458,0.26458 0.26459,0 0.26459,-0.26458 z m 0,1.05833 q 0,-0.26458 -0.26459,-0.26458 -0.26458,0 -0.26458,0.26458 0,0.26458 0.26458,0.26458 0.26459,0 0.26459,-0.26458 z"
         style="-inkscape-font-specification:'Angie Pierced';fill:#000000"
         id="path87082" />
      <path
         d="m 175.15469,184.49331 -1.05833,1.05833 -1.05833,-1.05833 q 0.26458,0 0.26458,-0.26458 0,-0.26458 -0.26458,-0.26458 h -1.05833 q -0.26458,0 -0.26458,0.26458 v 2.11666 q 0,0.26458 0.26458,0.26458 h 1.05833 q 0.20108,0 0.26458,-0.26458 0.0635,-0.26458 0.26458,-0.26458 h 1.05833 q 0.26459,0 0.26459,0.26458 v 0.52917 q 0,0.32808 -0.23284,0.56091 -0.23283,0.23283 -0.56091,0.23283 h -2.11666 q -0.32808,0 -0.56092,-0.23283 -0.23283,-0.23283 -0.23283,-0.56091 v -4.76249 q 0,-0.32808 0.23283,-0.56091 0.23284,-0.23284 0.56092,-0.23284 h 2.11666 q 0.32808,0 0.56091,0.23284 0.23284,0.23283 0.23284,0.56091 v 2.11666 q 0,0.26458 0.26458,0.26458 z m -0.79375,-2.38124 q 0,-0.26458 -0.26458,-0.26458 -0.26458,0 -0.26458,0.26458 0,0.26458 0.26458,0.26458 0.26458,0 0.26458,-0.26458 z m 0,1.05833 q 0,-0.26458 -0.26458,-0.26458 -0.26458,0 -0.26458,0.26458 0,0.26458 0.26458,0.26458 0.26458,0 0.26458,-0.26458 z m -1.05833,-0.52916 q 0,-0.26459 -0.26458,-0.26459 h -1.05833 q -0.26458,0 -0.26458,0.26459 0,0.26458 0.26458,0.26458 h 1.05833 q 0.26458,0 0.26458,-0.26458 z m 1.05833,1.58749 q 0,-0.26458 -0.26458,-0.26458 -0.26458,0 -0.26458,0.26458 0,0.26458 0.26458,0.26458 0.26458,0 0.26458,-0.26458 z"
         style="-inkscape-font-specification:'Angie Pierced';fill:#000000"
         id="path87084" />
      <path
         d="m 178.71067,186.60997 -2.11666,2.11666 -1.05833,-1.05833 q 0.26458,0 0.26458,-0.26458 v -7.40831 q 0,-0.32808 0.23283,-0.56091 0.23284,-0.23284 0.56092,-0.23284 0.32808,0 0.56091,0.23284 0.23284,0.23283 0.23284,0.56091 v 6.34998 q 0,0.26458 0.26458,0.26458 z m -1.85208,-6.61456 q 0,-0.26458 -0.26458,-0.26458 -0.26458,0 -0.26458,0.26458 0,0.26458 0.26458,0.26458 0.26458,0 0.26458,-0.26458 z m 0,1.05833 q 0,-0.26458 -0.26458,-0.26458 -0.26458,0 -0.26458,0.26458 0,0.26458 0.26458,0.26458 0.26458,0 0.26458,-0.26458 z m 0,1.05833 q 0,-0.26458 -0.26458,-0.26458 -0.26458,0 -0.26458,0.26458 0,0.26458 0.26458,0.26458 0.26458,0 0.26458,-0.26458 z m 0,1.05833 q 0,-0.26458 -0.26458,-0.26458 -0.26458,0 -0.26458,0.26458 0,0.26458 0.26458,0.26458 0.26458,0 0.26458,-0.26458 z m 0,1.05833 q 0,-0.26458 -0.26458,-0.26458 -0.26458,0 -0.26458,0.26458 0,0.26458 0.26458,0.26458 0.26458,0 0.26458,-0.26458 z m 0,1.05833 q 0,-0.26458 -0.26458,-0.26458 -0.26458,0 -0.26458,0.26458 0,0.26458 0.26458,0.26458 0.26458,0 0.26458,-0.26458 z m 0,1.05833 q 0,-0.26458 -0.26458,-0.26458 -0.26458,0 -0.26458,0.26458 0,0.26458 0.26458,0.26458 0.26458,0 0.26458,-0.26458 z m 0,1.05833 q 0,-0.26458 -0.26458,-0.26458 -0.26458,0 -0.26458,0.26458 0,0.26458 0.26458,0.26458 0.26458,0 0.26458,-0.26458 z"
         style="-inkscape-font-specification:'Angie Pierced';fill:#000000"
         id="path87086" />
      <path
         d="m 183.20856,184.49331 -1.05833,1.05833 -1.05833,-1.05833 q 0.26458,0 0.26458,-0.26458 0,-0.26458 -0.26458,-0.26458 h -1.05833 q -0.26459,0 -0.26459,0.26458 v 2.11666 q 0,0.26458 0.26459,0.26458 h 1.05833 q 0.20108,0 0.26458,-0.26458 0.0635,-0.26458 0.26458,-0.26458 h 1.05833 q 0.26458,0 0.26458,0.26458 v 0.52917 q 0,0.32808 -0.23283,0.56091 -0.23283,0.23283 -0.56091,0.23283 h -2.11666 q -0.32809,0 -0.56092,-0.23283 -0.23283,-0.23283 -0.23283,-0.56091 v -4.76249 q 0,-0.32808 0.23283,-0.56091 0.23283,-0.23284 0.56092,-0.23284 h 2.11666 q 0.32808,0 0.56091,0.23284 0.23283,0.23283 0.23283,0.56091 v 2.11666 q 0,0.26458 0.26459,0.26458 z m -0.79375,-2.38124 q 0,-0.26458 -0.26458,-0.26458 -0.26459,0 -0.26459,0.26458 0,0.26458 0.26459,0.26458 0.26458,0 0.26458,-0.26458 z m 0,1.05833 q 0,-0.26458 -0.26458,-0.26458 -0.26459,0 -0.26459,0.26458 0,0.26458 0.26459,0.26458 0.26458,0 0.26458,-0.26458 z m -1.05833,-0.52916 q 0,-0.26459 -0.26458,-0.26459 h -1.05833 q -0.26459,0 -0.26459,0.26459 0,0.26458 0.26459,0.26458 h 1.05833 q 0.26458,0 0.26458,-0.26458 z m 1.05833,1.58749 q 0,-0.26458 -0.26458,-0.26458 -0.26459,0 -0.26459,0.26458 0,0.26458 0.26459,0.26458 0.26458,0 0.26458,-0.26458 z"
         style="-inkscape-font-specification:'Angie Pierced';fill:#000000"
         id="path87088" />
      <path
         d="m 189.67494,187.6683 -1.05833,1.05833 -1.05833,-1.05833 q 0.26459,0 0.26459,-0.26458 v -4.76248 q 0,-0.26459 -0.26459,-0.26459 h -1.05833 q -0.26458,0 -0.26458,0.26459 v 4.76248 q 0,0.26458 -0.26458,0.26458 -0.26458,0 -0.26458,-0.26458 v -4.76248 q 0,-0.26459 -0.26459,-0.26459 h -1.05833 q -0.26458,0 -0.26458,0.26459 v 4.76248 q 0,0.26458 -0.26458,0.26458 -0.26458,0 -0.26458,-0.26458 v -5.29165 q 0,-0.32808 0.23283,-0.56091 0.23283,-0.23284 0.56091,-0.23284 h 0.79375 q 0.32808,0 0.56092,0.23284 0.23283,0.23283 0.23283,0.56091 0,-0.32808 0.23283,-0.56091 0.23283,-0.23284 0.56092,-0.23284 h 1.85207 q 0.32809,0 0.56092,0.23284 0.23283,0.23283 0.23283,0.56091 v 5.29165 q 0,0.26458 0.26458,0.26458 z m -0.79374,-5.55623 q 0,-0.26458 -0.26459,-0.26458 -0.26458,0 -0.26458,0.26458 0,0.26458 0.26458,0.26458 0.26459,0 0.26459,-0.26458 z m 0,1.05833 q 0,-0.26458 -0.26459,-0.26458 -0.26458,0 -0.26458,0.26458 0,0.26458 0.26458,0.26458 0.26459,0 0.26459,-0.26458 z m 0,1.05833 q 0,-0.26458 -0.26459,-0.26458 -0.26458,0 -0.26458,0.26458 0,0.26458 0.26458,0.26458 0.26459,0 0.26459,-0.26458 z m 0,1.05833 q 0,-0.26458 -0.26459,-0.26458 -0.26458,0 -0.26458,0.26458 0,0.26458 0.26458,0.26458 0.26459,0 0.26459,-0.26458 z m 0,1.05833 q 0,-0.26458 -0.26459,-0.26458 -0.26458,0 -0.26458,0.26458 0,0.26458 0.26458,0.26458 0.26459,0 0.26459,-0.26458 z m 0,1.05833 q 0,-0.26458 -0.26459,-0.26458 -0.26458,0 -0.26458,0.26458 0,0.26458 0.26458,0.26458 0.26459,0 0.26459,-0.26458 z"
         style="-inkscape-font-specification:'Angie Pierced';fill:#000000"
         id="path87090" />
      <path
         d="m 194.17283,184.49331 -1.05833,1.05833 -1.05833,-1.05833 q 0.26458,0 0.26458,-0.26458 0,-0.26458 -0.26458,-0.26458 h -1.05833 q -0.26459,0 -0.26459,0.26458 v 2.11666 q 0,0.26458 0.26459,0.26458 h 1.05833 q 0.20108,0 0.26458,-0.26458 0.0635,-0.26458 0.26458,-0.26458 h 1.05833 q 0.26458,0 0.26458,0.26458 v 0.52917 q 0,0.32808 -0.23283,0.56091 -0.23283,0.23283 -0.56091,0.23283 h -2.11666 q -0.32809,0 -0.56092,-0.23283 -0.23283,-0.23283 -0.23283,-0.56091 v -4.76249 q 0,-0.32808 0.23283,-0.56091 0.23283,-0.23284 0.56092,-0.23284 h 2.11666 q 0.32808,0 0.56091,0.23284 0.23283,0.23283 0.23283,0.56091 v 2.11666 q 0,0.26458 0.26459,0.26458 z m -0.79375,-2.38124 q 0,-0.26458 -0.26458,-0.26458 -0.26459,0 -0.26459,0.26458 0,0.26458 0.26459,0.26458 0.26458,0 0.26458,-0.26458 z m 0,1.05833 q 0,-0.26458 -0.26458,-0.26458 -0.26459,0 -0.26459,0.26458 0,0.26458 0.26459,0.26458 0.26458,0 0.26458,-0.26458 z m -1.05833,-0.52916 q 0,-0.26459 -0.26458,-0.26459 h -1.05833 q -0.26459,0 -0.26459,0.26459 0,0.26458 0.26459,0.26458 h 1.05833 q 0.26458,0 0.26458,-0.26458 z m 1.05833,1.58749 q 0,-0.26458 -0.26458,-0.26458 -0.26459,0 -0.26459,0.26458 0,0.26458 0.26459,0.26458 0.26458,0 0.26458,-0.26458 z"
         style="-inkscape-font-specification:'Angie Pierced';fill:#000000"
         id="path87092" />
      <path
         d="m 199.05172,180.78916 q 0,0.22225 -0.15875,0.381 -0.14817,0.14816 -0.37042,0.14816 h -1.32291 q -0.26458,0 -0.26458,0.26459 v 4.76248 q 0,0.26458 0.26458,0.26458 h 1.05833 l -2.11666,2.11666 -1.05833,-1.05833 q 0.26458,0 0.26458,-0.26458 v -5.82081 q 0,-0.26459 -0.26458,-0.26459 h -0.52916 q -0.22225,0 -0.37042,-0.14816 -0.15875,-0.15875 -0.15875,-0.381 0,-0.22225 0.15875,-0.37042 0.14817,-0.15875 0.37042,-0.15875 h 0.52916 q 0.26458,0 0.26458,-0.26458 0,-0.32808 0.23284,-0.56091 0.23283,-0.23284 0.56091,-0.23284 0.32808,0 0.56092,0.23284 0.23283,0.23283 0.23283,0.56091 0,0.26458 0.26458,0.26458 h 1.32291 q 0.22225,0 0.37042,0.15875 0.15875,0.14817 0.15875,0.37042 z m -2.64583,-0.79375 q 0,-0.26458 -0.26458,-0.26458 -0.26458,0 -0.26458,0.26458 0,0.26458 0.26458,0.26458 0.26458,0 0.26458,-0.26458 z m 0,1.05833 q 0,-0.26458 -0.26458,-0.26458 -0.26458,0 -0.26458,0.26458 0,0.26458 0.26458,0.26458 0.26458,0 0.26458,-0.26458 z m 0,1.05833 q 0,-0.26458 -0.26458,-0.26458 -0.26458,0 -0.26458,0.26458 0,0.26458 0.26458,0.26458 0.26458,0 0.26458,-0.26458 z m 0,1.05833 q 0,-0.26458 -0.26458,-0.26458 -0.26458,0 -0.26458,0.26458 0,0.26458 0.26458,0.26458 0.26458,0 0.26458,-0.26458 z m 0,1.05833 q 0,-0.26458 -0.26458,-0.26458 -0.26458,0 -0.26458,0.26458 0,0.26458 0.26458,0.26458 0.26458,0 0.26458,-0.26458 z m 0,1.05833 q 0,-0.26458 -0.26458,-0.26458 -0.26458,0 -0.26458,0.26458 0,0.26458 0.26458,0.26458 0.26458,0 0.26458,-0.26458 z m 0,1.05833 q 0,-0.26458 -0.26458,-0.26458 -0.26458,0 -0.26458,0.26458 0,0.26458 0.26458,0.26458 0.26458,0 0.26458,-0.26458 z m 0,1.05833 q 0,-0.26458 -0.26458,-0.26458 -0.26458,0 -0.26458,0.26458 0,0.26458 0.26458,0.26458 0.26458,0 0.26458,-0.26458 z"
         style="-inkscape-font-specification:'Angie Pierced';fill:#000000"
         id="path87094" />
      <path
         d="m 202.75587,184.49331 -1.05833,1.05833 -1.05833,-1.05833 q 0.26458,0 0.26458,-0.26458 v -1.58749 q 0,-0.26459 -0.26458,-0.26459 h -1.05833 q -0.26458,0 -0.26458,0.26459 v 4.76248 q 0,0.26458 -0.26458,0.26458 -0.26459,0 -0.26459,-0.26458 v -5.29165 q 0,-0.32808 0.23284,-0.56091 0.23283,-0.23284 0.56091,-0.23284 h 2.11666 q 0.32808,0 0.56092,0.23284 0.23283,0.23283 0.23283,0.56091 v 2.11666 q 0,0.26458 0.26458,0.26458 z m -0.79375,-2.38124 q 0,-0.26458 -0.26458,-0.26458 -0.26458,0 -0.26458,0.26458 0,0.26458 0.26458,0.26458 0.26458,0 0.26458,-0.26458 z m 0,1.05833 q 0,-0.26458 -0.26458,-0.26458 -0.26458,0 -0.26458,0.26458 0,0.26458 0.26458,0.26458 0.26458,0 0.26458,-0.26458 z m 0,1.05833 q 0,-0.26458 -0.26458,-0.26458 -0.26458,0 -0.26458,0.26458 0,0.26458 0.26458,0.26458 0.26458,0 0.26458,-0.26458 z"
         style="-inkscape-font-specification:'Angie Pierced';fill:#000000"
         id="path87096" />
      <path
         d="m 207.1056,189.78496 -1.05833,1.05833 -1.05833,-1.05833 q 0.26458,0 0.26458,-0.26458 v -1.85208 h -1.32291 q -0.32808,0 -0.56091,-0.23283 -0.23284,-0.23283 -0.23284,-0.56091 v -5.29165 q 0,-0.26459 0.26459,-0.26459 0.26458,0 0.26458,0.26459 v 4.76248 q 0,0.26458 0.26458,0.26458 h 1.05833 q 0.26458,0 0.26458,-0.26458 v -4.23332 q 0,-0.32808 0.23284,-0.56091 0.23283,-0.23284 0.56091,-0.23284 0.32808,0 0.56091,0.23284 0.23284,0.23283 0.23284,0.56091 v 7.40831 q 0,0.26458 0.26458,0.26458 z m -0.79375,-7.67289 q 0,-0.26458 -0.26458,-0.26458 -0.26458,0 -0.26458,0.26458 0,0.26458 0.26458,0.26458 0.26458,0 0.26458,-0.26458 z m 0,1.05833 q 0,-0.26458 -0.26458,-0.26458 -0.26458,0 -0.26458,0.26458 0,0.26458 0.26458,0.26458 0.26458,0 0.26458,-0.26458 z m 0,1.05833 q 0,-0.26458 -0.26458,-0.26458 -0.26458,0 -0.26458,0.26458 0,0.26458 0.26458,0.26458 0.26458,0 0.26458,-0.26458 z m 0,1.05833 q 0,-0.26458 -0.26458,-0.26458 -0.26458,0 -0.26458,0.26458 0,0.26458 0.26458,0.26458 0.26458,0 0.26458,-0.26458 z m 0,1.05833 q 0,-0.26458 -0.26458,-0.26458 -0.26458,0 -0.26458,0.26458 0,0.26458 0.26458,0.26458 0.26458,0 0.26458,-0.26458 z m 0,1.05833 q 0,-0.26458 -0.26458,-0.26458 -0.26458,0 -0.26458,0.26458 0,0.26458 0.26458,0.26458 0.26458,0 0.26458,-0.26458 z m 0,1.05833 q 0,-0.26458 -0.26458,-0.26458 -0.26458,0 -0.26458,0.26458 0,0.26458 0.26458,0.26458 0.26458,0 0.26458,-0.26458 z m 0,1.05833 q 0,-0.26458 -0.26458,-0.26458 -0.26458,0 -0.26458,0.26458 0,0.26458 0.26458,0.26458 0.26458,0 0.26458,-0.26458 z"
         style="-inkscape-font-specification:'Angie Pierced';fill:#000000"
         id="path87098" />
    </g>
  </g>
</svg>
